<?xml version="1.0" encoding="UTF-8" standalone="no"?>
<svg
   version="1.1"
   id="Layer_1"
   x="0px"
   y="0px"
   viewBox="0 0 39511.108 26839.336"
   xml:space="preserve"
   width="1400"
   height="951"
   sodipodi:docname="mirage-2-rs-DE_ed2.svg"
   inkscape:version="1.1.2 (b8e25be833, 2022-02-05)"
   xmlns:inkscape="http://www.inkscape.org/namespaces/inkscape"
   xmlns:sodipodi="http://sodipodi.sourceforge.net/DTD/sodipodi-0.dtd"
   xmlns:xlink="http://www.w3.org/1999/xlink"
   xmlns="http://www.w3.org/2000/svg"
   xmlns:svg="http://www.w3.org/2000/svg"
   xmlns:rdf="http://www.w3.org/1999/02/22-rdf-syntax-ns#"
   xmlns:cc="http://creativecommons.org/ns#"
   xmlns:dc="http://purl.org/dc/elements/1.1/"><sodipodi:namedview
   id="namedview836"
   pagecolor="#ffffff"
   bordercolor="#666666"
   borderopacity="1.0"
   inkscape:pageshadow="2"
   inkscape:pageopacity="0.0"
   inkscape:pagecheckerboard="0"
   showgrid="false"
   inkscape:zoom="0.80642857"
   inkscape:cx="517.71479"
   inkscape:cy="474.93357"
   inkscape:window-width="1920"
   inkscape:window-height="1017"
   inkscape:window-x="-8"
   inkscape:window-y="-8"
   inkscape:window-maximized="1"
   inkscape:current-layer="Layer_1" /><title
   id="title444">Swing.de ColorTool</title><metadata
   id="metadata105"><rdf:RDF><cc:Work
       rdf:about=""><dc:format>image/svg+xml</dc:format><dc:type
         rdf:resource="http://purl.org/dc/dcmitype/StillImage" /><dc:title>Swing.de ColorTool</dc:title><dc:creator><cc:Agent><dc:title>Daniel Kofler</dc:title></cc:Agent></dc:creator><dc:publisher><cc:Agent><dc:title>Swing.de</dc:title></cc:Agent></dc:publisher></cc:Work></rdf:RDF></metadata><defs
   id="defs103"><linearGradient
   id="linearGradient2841"
   inkscape:swatch="solid"><stop
     style="stop-color:#000000;stop-opacity:1;"
     offset="0"
     id="stop2839" /></linearGradient><linearGradient
   id="linearGradient2366"><stop
     style="stop-color:#ff0000;stop-opacity:1;"
     offset="0"
     id="stop2362" /><stop
     style="stop-color:#ff0000;stop-opacity:0;"
     offset="1"
     id="stop2364" /></linearGradient><linearGradient
   id="linearGradient3431"
   inkscape:swatch="solid"><stop
     style="stop-color:#ff0000;stop-opacity:1;"
     offset="0"
     id="stop3429" /></linearGradient>
	
	

		
	
			
			
			
			
			
		
			
			
			
			
			
			
			
			
			
		
	
	

		
	
	
	

		
	
			
			
			
			
			
			
			
			
			
			
			
			
		<filter
   style="color-interpolation-filters:sRGB"
   id="filter2358"
   x="-0.0061474629"
   width="1.0122949"
   y="-0.09385471"
   height="1.1877095"><feGaussianBlur
     stdDeviation="1.8938269"
     id="feGaussianBlur2360" /></filter><radialGradient
   xlink:href="#linearGradient2366"
   id="radialGradient2368"
   cx="507.17773"
   cy="952.27057"
   fx="507.17773"
   fy="952.27057"
   r="374.22485"
   gradientTransform="matrix(1,0,0,0.07684985,0,879.08873)"
   gradientUnits="userSpaceOnUse" /></defs>
<style
   type="text/css"
   id="style2">
	.st0{fill:none;stroke:#000000;stroke-width:1.5;stroke-linecap:round;stroke-linejoin:round;stroke-miterlimit:10;}
</style>


<g
   id="layer3"
   style="display:inline;opacity:0.8"
   transform="translate(64.843513)"><g
     id="g1569"
     transform="matrix(0.82988747,0,0,0.82988747,1703.7223,-953.19585)"
     style="display:inline"><path
       class="st0"
       d="m 26294.461,26461.061 c 0,8.07 -150.843,1773.324 -172.392,2293.191 -3.591,22.648 -6.078,38.267 -7.183,46.077 -12.155,92.675 -41.44,535.225 -41.44,535.225 0,0 -398.379,349.354 -566.35,494.615 -393.682,322.02 -3108.017,1581.466 -11244.115,1581.466 -9121.546,0 -11209.5809,-1518.468 -11285.5547,-1577.04 -75.9737,-58.573 -572.1514,-491.491 -572.1514,-491.491 1.1051,-76.015 -36.7437,-526.114 -39.2301,-570.63 -1.105,-20.565 -18.5099,-121.831 -41.4402,-261.365 L 2190.062,26456.896 c 0,0 485.6795,-746.348 628.5101,-878.592 142.8307,-132.505 536.5128,-501.123 536.5128,-501.123 l 128.741,279.848 c 0,0 759.7375,-601.087 3660.5534,-909.05 2428.121,-235.072 5334.7387,-243.142 6602.8097,-240.279 230.131,0.781 406.114,1.562 515.792,1.562 106.64,0 261.903,0.26 455.843,1.041 1103.415,4.946 3467.166,30.198 5352.696,146.563 2217.052,136.669 3456.944,401.939 4178.556,649.247 l 742.609,349.874 149.461,-273.339 c 0,0 514.688,456.607 592.872,556.311 78.184,99.704 559.443,813.511 559.443,822.102 z"
       id="path1459"
       style="display:inline;stroke-width:14.1111;stroke-miterlimit:10;stroke-dasharray:none" /><path
       class="st0"
       d="m 26294.461,26461.061 c 0,8.07 -150.843,1773.324 -172.392,2293.191 -3.591,22.648 -6.078,38.267 -7.183,46.077 -12.155,92.675 -41.44,535.225 -41.44,535.225 0,0 -398.379,349.354 -566.35,494.615 -393.682,322.02 -3108.017,1581.466 -11244.115,1581.466 -9121.546,0 -11209.5809,-1518.468 -11285.5547,-1577.04 -75.9737,-58.573 -572.1514,-491.491 -572.1514,-491.491 1.1051,-76.015 -36.7437,-526.114 -39.2301,-570.63 -1.105,-20.565 -18.5099,-121.831 -41.4402,-261.365 L 2190.062,26456.896 c 0,0 485.6795,-746.348 628.5101,-878.592 142.8307,-132.505 536.5128,-501.123 536.5128,-501.123 l 128.741,279.848 c 0,0 759.7375,-601.087 3660.5534,-909.05 2428.121,-235.072 5334.7387,-243.142 6602.8097,-240.279 230.131,0.781 406.114,1.562 515.792,1.562 106.64,0 261.903,0.26 455.843,1.041 1103.415,4.946 3467.166,30.198 5352.696,146.563 2217.052,136.669 3456.944,401.939 4178.556,649.247 l 742.609,349.874 149.461,-273.339 c 0,0 514.688,456.607 592.872,556.311 78.184,99.704 559.443,813.511 559.443,822.102 z"
       id="path1485"
       style="display:inline;stroke-width:14.1111;stroke-miterlimit:10;stroke-dasharray:none" /></g><path
     class="st0"
     d="m 23556.804,21268.129 c 0,584.386 -142.836,1441.198 -174.705,1641.467 17.883,-431.431 143.066,-1896.394 143.066,-1903.091 0,-7.129 -399.391,-599.509 -464.275,-682.252 -64.884,-82.743 -492.017,-461.675 -492.017,-461.675 -185.374,-105.053 -253.12,-134.568 -639.147,-316.442 -598.857,-205.237 -1698.647,-455.733 -3538.55,-589.387 -1564.779,-96.57 -3550.115,-140.474 -4465.825,-144.579 l -6.662,-112.964 c 6026.401,19.66 7396.986,489.113 8066.459,735.614 684.146,252.118 1191.753,666.697 1386.634,1025.754 194.881,359.274 185.022,576.609 185.022,807.555 z"
     id="colorDS1-6"
     style="display:inline;fill:#ffffff;stroke-width:11.7106;stroke-miterlimit:10;stroke-dasharray:none" /><path
     class="st0"
     d="m 13918.689,18699.206 6.662,112.964 c -160.948,-0.648 -309.786,-7.526 -398.285,-7.526 -91.021,0 -237.067,-0.648 -428.05,-1.297 l 13.325,-104.141 c 134.124,-0.432 270.54,-0.648 409.479,-0.648 134.582,0 266.872,0.216 396.869,0.648 z"
     id="colorOS1-4"
     style="display:inline;fill:#3a545e;fill-opacity:0.992157;stroke-width:11.7106;stroke-miterlimit:10;stroke-dasharray:none" /><path
     style="display:inline;opacity:0.2;mix-blend-mode:normal;fill:#ffffff;stroke:#000000;stroke-width:23.4213px;stroke-linecap:butt;stroke-linejoin:miter;stroke-miterlimit:10;stroke-dasharray:none;stroke-opacity:1"
     d="m 13918.689,19138.629 822.674,0.62 799.246,20.234 819.481,20.234 799.246,30.352 809.364,20.233 809.363,60.703 779.013,70.819 799.247,101.17 758.777,141.639 713.455,194.427 616.282,290.357 124.036,-226.842 -229.61,-136.537 -409.537,-179.905 -733.688,-214.66 -768.896,-151.756 -799.247,-111.287 -799.247,-80.936 -839.714,-60.702 -809.363,-40.469 -809.364,-30.351 -829.598,-20.234 -809.362,-10.117 -805.896,-13.454 z"
     id="colorDS1-5" /><path
     class="st0"
     d="m 13112.341,18699.206 -13.325,104.141 c -1052.356,-2.376 -3422.936,45.444 -5438.0051,240.528 -2407.3507,255.574 -3037.8474,735.57 -3037.8474,735.57 l -135.0984,78.596 c 0,0 -326.7119,305.911 -445.2453,415.875 -118.5333,109.748 -521.5926,729.133 -521.5926,729.133 l 111.6552,1704.765 c -22.01,-133.295 -50.2104,-308.719 -70.6156,-471.613 -38.0591,-304.184 -76.3474,-793.08 -75.4303,-1007.391 5.7318,-1336.635 1249.5297,-1671.497 2034.7845,-1930.743 765.9961,-252.982 2257.4072,-582.874 7590.72,-598.861 z"
     id="colorCS1-5"
     style="display:inline;fill:#ffffff;stroke-width:11.7106;stroke-miterlimit:10;stroke-dasharray:none" /><path
     style="display:inline;opacity:0.2;fill:#ffffff;stroke:#000000;stroke-width:23.4213px;stroke-linecap:butt;stroke-linejoin:miter;stroke-miterlimit:10;stroke-dasharray:none;stroke-opacity:1"
     d="m 4594.9056,20090.282 -106.8405,-232.242 255.6134,-161.556 351.9371,-147.323 720.2421,-212.798 785.7195,-171.877 793.9036,-98.214 810.273,-81.846 843.011,-57.292 810.2762,-49.107 818.455,-24.554 785.718,-49.107 834.827,-16.37 800.975,15.351 13.325,333.121 -814.3,3.464 -810.273,8.186 -818.456,16.368 -818.456,24.554 -793.9062,40.924 -802.0886,49.106 -793.9036,73.662 -777.5349,106.399 -769.3499,155.507 -687.5042,196.43 z"
     id="colorCS1-4" /><path
     id="colorRS1-1"
     style="opacity:0.338509;fill:none;fill-opacity:1;fill-rule:evenodd;stroke:#000000;stroke-width:0.517141;stroke-miterlimit:10;stroke-dasharray:none;stroke-opacity:1"
     d="m 506.60938,928.05664 v 0.006 c -226.71901,0.72538 -276.45896,14.30207 -311.07618,23.11719 -27.83778,8.21664 -52.24105,16.79169 -58.03515,24.33008 l 3.47265,0.97461 c 0,-10e-6 60.53023,-20.23973 75.84766,-23.32227 16.13507,-3.24705 33.16175,-6.69535 58.17773,-10.39063 86.0358,-8.32932 187.24999,-10.37101 232.18164,-10.26953 44.93166,-0.10148 146.14582,1.94021 232.18165,10.26953 25.01596,3.69528 42.04268,7.14358 58.17773,10.39063 15.31743,3.08254 75.8457,23.32226 75.8457,23.32227 l 3.47461,-0.97461 c -5.79412,-7.53839 -30.19737,-16.11344 -58.03515,-24.33008 -34.61724,-8.81512 -84.35714,-22.39181 -311.07618,-23.11719 v -0.006 c -0.19414,5.8e-4 -0.37447,10e-4 -0.56836,0.002 -0.19388,-6e-4 -0.37421,-10e-4 -0.56835,-0.002 z"
     transform="matrix(23.622528,0,0,31.519377,1588.8451,-8546.0137)" /><path
     id="path1018"
     d="m 30411.277,23623.602 v -1.415 c 0,-132.271 97.203,-249.283 241.837,-249.283 81.235,0 131.631,23.413 179.888,64.056 l -35.085,41.3 c -37.358,-32.491 -78.423,-55.195 -146.874,-55.195 -106.77,0 -183.139,90.262 -183.139,197.758 v 1.364 c 0,115.141 73.557,200.536 190.802,200.536 54.961,0 106.08,-21.323 139.211,-48.256 v -120.025 h -146.874 v -48.711 h 199.106 v 192.167 c -44.805,39.919 -112.06,73.789 -193.581,73.789 -151.524,0 -245.291,-110.239 -245.291,-248.085 z m -472.137,-242.545 303.822,386.404 v -386.404 h 52.938 v 482.31 h -43.389 l -311.3,-395.55 v 395.55 h -53.123 v -482.31 z m -246.722,0.184 v 482.059 h 54.303 v -482.059 z m -298.701,401.548 137.846,-401.732 h 57.116 l -172.274,485.746 h -46.15 l -132.338,-391.338 -132.962,391.338 h -45.478 l -172.24,-485.746 h 59.424 l 137.609,401.732 132.323,-403.147 h 44.803 z m -924.753,10.223 33.638,-39.935 c 50.394,45.511 98.701,68.282 165.553,68.282 64.696,0 107.427,-34.36 107.427,-81.942 v -1.432 c 0,-44.803 -24.137,-70.288 -125.568,-91.678 -110.914,-24.12 -161.797,-59.845 -161.797,-138.993 v -1.414 c 0,-75.879 66.836,-131.631 158.548,-131.631 70.1,0 120.496,19.994 169.208,59.188 l -31.548,42.008 c -44.551,-36.417 -89.591,-52.4 -139.024,-52.4 -62.928,0 -102.88,34.579 -102.88,77.968 v 1.415 c 0,45.207 25.096,70.758 130.923,93.531 107.478,23.395 157.149,62.623 157.149,136.482 v 1.364 c 0,82.667 -68.907,136.482 -164.576,136.482 -76.604,0 -139.228,-25.552 -197.053,-77.295 z m -324.706,-285.933 h 56.376 l -149.435,368.112 c -30.437,73.555 -64.779,100.472 -118.612,100.472 -29.711,0 -51.758,-6.251 -75.71,-17.822 l 17.904,-42.243 c 17.164,9.029 32.98,13.189 55.718,13.189 31.8,0 51.76,-16.456 73.101,-66.852 l -162.033,-354.856 h 58.766 l 129.474,297.1 z m -402.708,179.147 v -1.365 c 0,-83.998 -58.059,-137.661 -125.365,-137.661 -66.126,0 -128.819,55.717 -128.819,136.955 v 1.414 c 0,82.617 62.693,137.862 128.819,137.862 68.973,0 125.365,-51.086 125.365,-137.205 z m -252.044,108.858 v 68.283 h -53.191 v -502.994 h 53.191 v 218.426 c 28.751,-42.716 70.76,-79.148 136.246,-79.148 85.379,0 170.353,67.508 170.353,184.504 v 1.414 c 0,116.472 -84.267,185.461 -170.353,185.461 -65.976,0 -108.674,-35.993 -136.246,-75.946 z m 5209.607,-853.437 v -214.686 h -49.653 v -46.876 h 49.653 v -107.493 h 52.956 v 107.493 h 113.02 v 46.876 h -113.02 v 207.982 c 0,43.371 24.12,59.154 60.131,59.154 17.872,0 32.912,-3.504 51.508,-12.279 v 45.444 c -18.596,9.566 -38.504,15.092 -64.055,15.092 -57.099,0 -100.54,-28.264 -100.54,-100.707 z m -443.316,-408.519 h 53.173 v 208.925 c 23.464,-38.555 60.603,-69.631 121.879,-69.631 86.087,0 136.482,57.756 136.482,142.731 v 220.952 h -53.173 v -207.966 c 0,-66.127 -35.725,-107.478 -98.418,-107.478 -61.258,0 -106.77,44.568 -106.77,111.403 v 204.041 h -53.173 z m -169.647,308.032 v -1.399 c 0,-72.865 -63.348,-120.48 -130.907,-120.48 -67.543,0 -123.227,46.655 -123.227,119.739 v 1.432 c 0,71.718 57.1,121.39 123.227,121.39 67.559,0 130.907,-48.964 130.907,-120.682 z m -292.233,256.928 24.372,-41.301 c 40.392,29.712 85.901,45.478 136.954,45.478 78.456,0 129.542,-43.388 129.542,-126.763 v -42.008 c -30.907,41.368 -74.514,75.004 -139.986,75.004 -85.396,0 -167.338,-64.072 -167.338,-166.681 v -1.365 c 0,-103.99 82.584,-168.03 167.338,-168.03 66.836,0 110.275,33.148 139.262,71.467 v -63.804 h 52.889 v 294.053 c 0,55.262 -16.457,97.287 -45.462,126.039 -31.546,31.799 -79.145,47.599 -135.522,47.599 -59.186,0 -114.466,-16.523 -162.049,-49.688 z m -172.19,-61.983 h 53.125 v -356.02 h -53.125 z m -3.504,-434.038 h 60.788 v -58.464 h -60.788 z m -178.033,434.038 h 52.483 v -502.977 h -52.483 z m -238.368,-309.144 h -48.745 v -46.235 h 48.745 v -31.076 c 0,-40.643 11.167,-71.719 31.126,-91.679 17.82,-17.87 44.063,-27.387 76.351,-27.387 24.844,0 41.301,2.544 58.716,8.793 v 46.217 c -19.285,-5.574 -33.872,-8.843 -51.776,-8.843 -41.283,0 -61.967,24.593 -61.967,75.695 v 29.003 h 113.018 v 45.512 h -112.294 v 309.144 h -53.174 z m -396.478,131.379 v -1.432 c 0,-81.943 -62.622,-136.904 -128.817,-136.904 -68.67,0 -125.315,50.818 -125.315,136.904 v 1.432 c 0,84.032 58.48,137.846 125.315,137.846 66.195,0 128.817,-55.719 128.817,-137.846 z m -308.671,0.657 v -1.382 c 0,-116.287 84.974,-185.193 170.37,-185.193 66.129,0 108.827,35.692 136.482,75.879 v -214.938 h 52.94 v 502.742 h -52.94 v -71.72 c -29.004,42.918 -71.01,79.416 -136.482,79.416 -85.396,0 -170.37,-67.575 -170.37,-184.804 z m -155.751,177.108 h 53.124 v -356.02 h -53.124 z m -3.504,-434.038 h 60.603 v -58.464 h -60.603 z m -177.765,-68.939 v 502.977 h 53.175 v -502.977 z m -155.295,326.576 v -1.364 c 0,-76.369 -57.083,-139.059 -132.052,-139.059 -77.329,0 -130.199,62.69 -130.199,137.627 v 1.432 c 0,76.603 56.374,138.57 131.378,138.57 77.294,0 130.873,-61.967 130.873,-137.206 z m -316.824,0 v -1.364 c 0,-100.539 78.456,-185.918 185.951,-185.918 107.006,0 185.428,83.999 185.428,184.486 v 1.432 c 0,100.722 -79.13,186.102 -186.607,186.102 -106.804,0 -184.772,-84.016 -184.772,-184.738 z m -350.916,130.889 26.917,-37.779 c 38.739,29.004 81.217,45.46 123.226,45.46 42.967,0 73.824,-22.048 73.824,-56.392 v -1.415 c 0,-35.96 -42.024,-49.636 -88.9,-62.875 -55.684,-15.816 -117.667,-35.052 -117.667,-100.539 v -1.365 c 0,-61.258 50.816,-101.901 121.171,-101.901 43.372,0 91.679,15.091 128.094,39.211 l -24.12,39.918 c -32.979,-21.323 -70.809,-34.327 -105.389,-34.327 -42.023,0 -68.94,22.049 -68.94,51.508 v 1.432 c 0,33.871 44.332,46.892 91.679,61.495 55.262,16.456 114.451,37.848 114.451,101.919 v 1.365 c 0,67.306 -55.971,106.77 -126.747,106.77 -51.036,0 -107.494,-19.959 -147.599,-52.485 z m -316.403,45.512 -127.419,-165.941 -72.41,73.082 v 92.859 h -52.955 v -502.977 h 52.955 v 347.259 l 192.166,-200.302 h 66.195 l -149.503,152.939 154.37,203.081 z m -668.48,-176.401 v -1.364 c 0,-100.539 78.491,-185.918 182.481,-185.918 67.492,0 109.735,28.264 142.731,63.348 l -35.303,37.14 c -28.045,-29.712 -59.896,-53.629 -108.152,-53.629 -72.173,0 -127.453,61.276 -127.453,137.627 v 1.432 c 0,77.243 56.695,138.57 130.957,138.57 45.477,0 80.764,-22.772 108.875,-52.939 l 33.855,31.531 c -35.775,39.952 -78.658,68.94 -145.51,68.94 -103.99,0 -182.481,-84.672 -182.481,-184.738 z m -128.329,0 v -1.364 c 0,-76.369 -57.117,-139.059 -132.288,-139.059 -77.311,0 -130.249,62.69 -130.249,137.627 v 1.432 c 0,76.603 56.391,138.57 131.631,138.57 77.058,0 130.906,-61.967 130.906,-137.206 z m -317.094,0 v -1.364 c 0,-100.539 78.692,-185.918 186.188,-185.918 106.752,0 185.192,83.999 185.192,184.486 v 1.432 c 0,100.722 -79.147,186.102 -186.574,186.102 -106.771,0 -184.806,-84.016 -184.806,-184.738 z m -258.512,-59.895 c 72.376,0 123.95,-37.14 123.95,-99.123 v -1.364 c 0,-59.156 -45.291,-95.184 -123.309,-95.184 h -148.728 v 195.671 z m -202.44,-245.762 h 207.308 c 59.17,0 106.769,17.838 136.903,48.02 23.699,23.48 37.358,57.099 37.358,95.198 v 1.365 c 0,79.837 -55.179,126.73 -130.873,140.39 l 148.053,197.085 h -66.852 l -139.698,-187.282 h -137.846 v 187.282 h -54.353 z m 1375.497,-1368.323 c 0,-99.764 -33.687,-186.337 -96.074,-248.54 -84.521,-86.341 -214.282,-127.943 -398.531,-127.943 h -240.945 l -58.06,208.453 -0.656,2.325 h 286.405 c 105.17,0 176.653,22.52 220.041,64.038 30.166,32.037 47.112,71.484 47.112,120.28 0,64.037 -24.609,116.757 -65.892,158.294 -62.236,63.819 -171.314,99.577 -310.576,99.577 h -297.369 l -0.64,1.837 -54.135,203.35 h 273.217 l 225.836,458.829 h 265.333 l -244.684,-481.602 c 139.262,-26.241 252.113,-78.893 329.356,-157.806 77.059,-75.457 120.262,-178.978 120.262,-301.092 z m 2863.982,940.737 297.1,-1102.704 h -419.4 l 58.008,-214.516 h 1068.831 l -58.463,214.516 h -417.548 l -297.335,1102.704 z m -1468.322,-227.706 174.986,-144.786 c 107.258,122.048 227.739,186.153 396.931,186.153 146.689,0 253.947,-73.37 253.947,-182.48 0,-79.13 -54.32,-126.023 -242.544,-199.594 -201.277,-80.798 -338.704,-171.062 -338.704,-353.711 0,-248.154 224.018,-413.607 506.026,-413.607 218.425,0 376.468,78.878 483.726,197.252 l -161.798,158.058 c -99.83,-97.674 -201.497,-150.393 -338.873,-150.393 -154.116,0 -244.616,84.755 -244.616,173.167 0,84.469 66.128,125.77 255.952,201.244 201.262,78.895 327.537,171.298 327.537,353.711 0,257.636 -235.352,421.54 -513.672,421.54 -248.322,0 -438.417,-86.575 -558.898,-246.554 z m -444.951,-295.416 h -453.306 l 368.819,-532.47 z m 92.402,-803.597 h -222.181 l -934.909,1326.482 h 249.99 l 220.261,-317.699 h 622.733 l 50.85,317.699 h 236.986 z"
     style="clip-rule:evenodd;fill-rule:evenodd;stroke-width:1.68434;image-rendering:optimizeQuality;shape-rendering:geometricPrecision;text-rendering:geometricPrecision" /><polygon
     class="fil2"
     points="139.87,798.43 -0.01,798.43 212.09,9.25 353.34,9.25 "
     id="colorRS1-2"
     style="clip-rule:evenodd;display:inline;fill:#f9b61d;fill-rule:evenodd;stroke:#000000;stroke-width:12.7343;stroke-miterlimit:4;stroke-dasharray:none;stroke-opacity:1;image-rendering:optimizeQuality;shape-rendering:geometricPrecision;text-rendering:geometricPrecision"
     transform="matrix(1.6843385,0,0,1.6843385,27377.144,20787.681)" /></g><g
   id="layer2"
   style="display:inline;opacity:0.8;mix-blend-mode:multiply"
   transform="translate(64.843513)"><path
     class="st0"
     d="m 19014.074,17384.873 c 128.616,-99.201 336.327,-259.449 452.822,-346.44 177.269,-132.196 479.899,-386.544 479.899,-386.544 30.651,-30.234 567.341,-402.699 663.42,-475.015 95.847,-72.513 206.473,-189.164 206.473,-189.164 0,0 480.804,-324.337 636.543,-437.886 155.738,-113.746 181.52,-187.916 181.52,-187.916 0,0 219.488,-140.159 480.804,-302.939 261.544,-163.178 275.337,-255.653 275.337,-255.653 232.39,-122.855 497.364,-289.437 557.505,-350.289 59.909,-60.849 44.154,-106.853 44.154,-106.853 226.148,-122.792 307.564,-204.27 336.466,-246.572 33.192,97.736 45.223,162.602 45.223,162.602 0.71,1.578 1.652,3.154 2.363,4.731 10.628,127.492 28.568,375.177 30.861,586.765 1.541,142.247 -35.193,1168.779 -114.274,1700.6 -66.339,449.067 -101.078,742.073 -110.15,822.214 10.648,-126.719 63.243,-756.148 61.021,-961.198 -2.472,-228.229 -37.563,-629.295 -278.275,-1189.335 0,0 0.412,38.038 -192.223,117.489 -192.403,79.449 -416.85,167.351 -416.85,167.351 0,0 -37.536,56.062 -89.466,85.326 -51.931,29.065 -653.418,309.864 -653.418,309.864 0,0 -66.635,58.937 -136.914,101.466 -70.28,42.53 -674.295,346.14 -674.295,346.14 0,0 -62.865,44.038 -143.919,94.999 -80.827,50.564 -703.947,383.101 -718.633,393.158 0,0 -658.026,396.696 -911.196,543.343 -4.625,-0.15 -9.711,-0.1 -14.798,-0.244 z"
     id="colorAR1-1"
     style="fill:#ffffff;stroke-width:11.7106;stroke-miterlimit:10;stroke-dasharray:none" /><path
     class="st0"
     d="m 19029.33,17384.716 c 253.167,-146.845 911.196,-543.343 911.196,-543.343 14.919,-9.862 637.808,-342.397 718.633,-393.157 80.825,-50.761 143.919,-95 143.919,-95 0,0 604.015,-303.611 674.295,-346.14 70.279,-42.529 136.913,-101.466 136.913,-101.466 0,0 601.488,-280.799 653.419,-309.864 51.93,-29.263 89.466,-85.326 89.466,-85.326 0,0 224.215,-87.9 416.85,-167.351 192.635,-79.451 192.223,-117.488 192.223,-117.488 240.712,560.039 275.803,961.105 278.275,1189.335 2.222,205.049 -50.604,834.48 -61.021,961.198 9.072,-80.142 43.58,-373.145 110.15,-822.215 79.081,-531.822 115.815,-1558.353 114.274,-1700.6 -2.292,-211.587 -20.465,-459.271 -30.861,-586.765 163.477,344.665 230.423,399.852 241.589,1430.648 11.218,1035.549 -241.057,1755.597 -241.057,1755.597 0,0 -1514.81,-97.77 -3953.925,-72.709 -119.039,1.62 -251.024,3.174 -394.338,4.646 z"
     id="colorFR1-3"
     style="display:inline;fill:#ffffff;stroke-width:11.7106;stroke-miterlimit:10;stroke-dasharray:none" /><path
     class="st0"
     d="m 14005.883,11242.351 -1.06,-97.869 c 0,0 134.321,-41.998 419.563,-44.929 285.241,-2.931 547.711,47.473 547.711,47.473 0,0 630.298,-54.029 977.277,50.985 0,0 392.542,-63.87 966.464,77.053 0,0 567.375,-15.341 949.336,117.846 0,0 408.875,-28.572 924.436,145.446 0,0 381.858,-25.719 934.487,198.244 0,0 423.347,26.956 879.779,291.139 0,0 243.893,-21.328 802.8,334.134 0,0 309.554,85.981 487.835,239.29 -112.116,-63.44 -247.987,-121.882 -404.618,-154.55 0,0 -261.008,-278.277 -792.15,-332.657 0,0 -381.458,-278.823 -876.181,-279.09 0,0 -429.487,-230.975 -938.632,-196.815 0,0 -454.68,-209.119 -945.169,-138.694 0,0 -401.654,-201.144 -955.75,-112.431 0,0 -426.935,-187.411 -985.508,-85.179 0,0 -458.455,-173.415 -997.732,-39.877 0,0.396 -452.191,-150.099 -992.888,-19.519 z"
     id="colorFR1-2"
     style="display:inline;fill:#ffffff;stroke-width:11.7106;stroke-miterlimit:10;stroke-dasharray:none" /><path
     class="st0"
     d="m 3698.3026,15056.205 c -2.2921,-211.588 10.5103,-459.589 18.1432,-587.268 0.6762,-1.592 1.5837,-3.186 2.26,-4.778 0,0 10.3913,-65.097 41.6903,-163.496 29.8112,41.699 112.9747,121.486 341.733,239.603 0,0 -14.756,46.318 46.4582,105.923 61.4454,59.602 330.2005,220.701 564.9687,338.757 0,0 15.7939,92.169 280.8142,249.938 264.787,157.573 487.2597,292.992 487.2597,292.992 0,0 27.3829,73.624 185.7809,184.142 158.1647,110.323 645.8873,424.71 645.8873,424.71 0,0 113.1287,114.352 210.5248,184.879 97.3941,70.329 642.2619,431.483 673.5624,461.278 0,0 308.0708,247.875 488.1654,376.597 118.3544,84.578 329.7218,240.52 460.227,337.059 -5.0833,0.251 -10.1686,0.303 -15.2561,0.157 -256.2917,-141.611 -922.7631,-524.5 -922.7631,-524.5 -15.13,-9.553 -645.084,-329.215 -726.9903,-378.304 -81.9062,-49.089 -145.9452,-92.021 -145.9452,-92.021 0,0 -610.4571,-291.133 -681.6425,-332.208 -71.1852,-41.076 -139.0814,-98.631 -139.0814,-98.631 0,0 -607.4365,-268.377 -659.9859,-296.369 -52.5515,-28.191 -91.2946,-83.469 -91.2946,-83.469 0,0 -226.069,-83.272 -420.3823,-158.748 -194.3132,-75.475 -194.7253,-113.514 -194.7253,-113.514 -228.5262,564.862 -254.9215,966.56 -252.4491,1194.789 2.2212,205.049 68.6702,833.255 81.8303,959.73 -10.8067,-79.937 -51.6541,-372.166 -127.9367,-819.768 -90.1178,-529.687 -149.3141,-1555.431 -150.8529,-1697.48 z"
     id="colorAL1-2"
     style="display:inline;fill:#ffffff;stroke-width:11.7106;stroke-miterlimit:10;stroke-dasharray:none" /><path
     class="st0"
     d="m 8130.5216,17496.698 c -256.2917,-141.611 -922.7631,-524.5 -922.7631,-524.5 -15.13,-9.553 -645.084,-329.215 -726.9903,-378.304 -81.9062,-49.089 -145.9452,-92.021 -145.9452,-92.021 0,0 -610.4571,-291.133 -681.6425,-332.208 -71.1852,-41.076 -139.0814,-98.631 -139.0814,-98.631 0,0 -607.4365,-268.377 -659.9859,-296.369 -52.5515,-28.191 -91.2946,-83.469 -91.2946,-83.469 0,0 -226.069,-83.272 -420.3823,-158.748 -194.3132,-75.475 -194.7253,-113.514 -194.7253,-113.514 -228.5262,564.862 -254.9215,966.56 -252.4491,1194.789 2.2212,205.049 68.6702,833.255 81.8303,959.73 -10.8067,-79.937 -51.6541,-372.166 -127.9367,-819.768 -90.5843,-530.078 -149.5474,-1555.627 -151.0884,-1697.874 -2.292,-211.587 10.5104,-459.589 18.1432,-587.268 -155.9745,347.947 -221.7099,404.497 -210.5437,1435.293 11.2177,1035.549 279.0346,1750.254 279.0346,1750.254 0,0 1512.3547,-128.874 3951.4689,-153.935 119.0475,-0.826 251.0374,-1.985 394.3515,-3.457 z"
     id="colorFL1-4"
     style="display:inline;fill:#ffffff;stroke-width:11.7106;stroke-miterlimit:10;stroke-dasharray:none" /><path
     class="st0"
     d="m 5162.3583,12754.352 c 174.9174,-155.32 482.5415,-246.38 482.5415,-246.38 551.0811,-362.823 795.3835,-346.503 795.3835,-346.503 450.6077,-270.342 873.2764,-305.578 873.2764,-305.578 547.654,-232.55 929.9841,-214.89 929.9841,-214.89 511.678,-182.439 921.08,-162.508 921.08,-162.508 378.9912,-139.375 946.5752,-135.738 946.5752,-135.738 570.739,-150.921 964.574,-95.774 964.574,-95.774 344.625,-111.02 975.956,-70.233 975.956,-70.233 0,0 261.088,-55.139 546.561,-58.038 285.473,-2.899 420.443,35.878 420.443,35.878 l 1.061,96.739 c -543.406,-118.061 -992.243,39.65 -992.243,39.65 -541.816,-120.819 -996.645,59.671 -996.645,59.671 -560.662,-89.683 -983.438,104.19 -983.438,104.19 -555.9,-76.414 -953.1072,130.519 -953.1072,130.519 -492.135,-59.436 -941.9542,156.256 -941.9542,156.256 -510.0031,-23.414 -934.1599,213.561 -934.1599,213.561 -494.6069,10.311 -869.9401,293.598 -869.9401,293.598 -529.8453,64.528 -784.7675,344.829 -784.7675,344.829 -156.1186,35.467 -290.6964,95.783 -401.1808,160.751 z"
     id="colorFL1-3"
     style="display:inline;fill:#ffffff;stroke-width:11.6427;stroke-miterlimit:10;stroke-dasharray:none" /><path
     class="st0"
     d="m 3760.3961,14300.663 c 58.1079,-184.469 189.1514,-486.39 459.683,-694.837 0,0 180.3313,-340.271 495.2517,-505.781 0,-0.199 0.2289,-0.201 0.2289,-0.201 31.7187,-16.97 65.0769,-31.975 99.6145,-44.813 0,0 14.607,-17.387 42.2738,-45.609 53.9681,-54.448 157.898,-149.037 304.219,-235.739 h 0.2311 c 110.7155,-65.73 245.2913,-126.95 401.1786,-162.831 0,0 254.9223,-283.578 784.7677,-348.859 0,0 375.333,-286.599 869.9401,-297.03 0,0 424.3878,-239.748 934.1598,-216.058 0,0 450.0485,-218.415 941.9545,-158.084 0,0 397.2072,-209.351 953.1072,-132.043 0,0 422.776,-196.142 983.437,-105.409 0,0 454.596,-182.796 996.646,-60.369 0,0 448.837,-159.556 992.242,-40.114 l -1.06,-97.869 c 0,0 160.319,-53.559 492.484,-56.972 332.166,-3.413 493.61,46.84 493.61,46.84 l 1.059,97.87 c 540.698,-130.581 992.891,19.717 992.891,19.717 539.049,-133.338 997.731,39.877 997.731,39.877 558.574,-102.232 985.508,85.179 985.508,85.179 554.097,-88.714 955.751,112.43 955.751,112.43 490.723,-70.229 945.169,138.694 945.169,138.694 509.377,-34.162 938.633,196.815 938.633,196.815 494.722,0.267 876.181,279.09 876.181,279.09 531.141,54.38 792.15,332.657 792.15,332.657 156.629,32.669 292.502,91.11 404.616,154.551 h 0.232 c 147.935,83.679 254.122,176.11 309.257,229.437 28.506,27.842 43.253,44.731 43.253,44.731 34.808,12.124 68.482,26.242 100.563,42.755 0,0 0.231,0 0.234,0.195 318.668,159.199 506.097,495.494 506.097,495.494 275.219,202.839 412.542,502.003 474.633,685.237 -28.901,42.302 -110.318,123.78 -336.466,246.571 0,0 15.756,46.005 -44.154,106.854 -60.14,60.852 -325.345,227.437 -557.504,350.29 0,0 -13.793,92.473 -275.337,255.652 -261.315,162.979 -480.805,302.939 -480.805,302.939 0,0 -25.782,74.171 -181.519,187.917 -155.74,113.547 -636.543,437.886 -636.543,437.886 0,0 -110.627,116.65 -206.473,189.163 -95.849,72.314 -632.772,444.584 -663.42,475.016 0,0 -302.633,254.149 -479.899,386.543 -116.496,86.99 -324.437,247.241 -452.823,346.441 -1569.028,18.894 -4453.871,63.594 -5433.955,73.664 -980.084,10.069 -3865.25,24.656 -5434.3408,38.003 -130.7364,-96.536 -341.8725,-252.481 -460.2269,-337.058 -180.0925,-128.524 -488.1654,-376.597 -488.1654,-376.597 -31.2984,-29.598 -575.9372,-390.953 -673.5624,-461.279 -97.3962,-70.527 -210.5249,-184.879 -210.5249,-184.879 0,0 -487.7226,-314.387 -645.8873,-424.709 -158.1667,-110.521 -185.7809,-184.142 -185.7809,-184.142 0,0 -222.4748,-135.619 -487.2596,-292.993 -265.0204,-157.768 -280.8142,-249.939 -280.8142,-249.939 -234.9993,-118.052 -503.5234,-279.153 -564.9687,-338.756 -61.2143,-59.605 -46.4583,-105.922 -46.4583,-105.922 -228.0648,-118.125 -310.9971,-197.914 -341.0395,-239.611 z"
     id="colorUS1-2"
     style="display:inline;fill:#ffffff;fill-opacity:1;stroke-width:11.7106;stroke-miterlimit:10;stroke-dasharray:none" /></g><g
   id="g36"
   style="display:inline;opacity:0.8;mix-blend-mode:multiply"
   transform="matrix(55.043007,0,0,55.043007,1945.7859,763.85119)">
			
			
			
			
			
			
			
			
			
			
			
			
			
			
			
			
		<path
   class="st0"
   d="m 619.14195,209.27755 -0.45383,34.87753 -7.25263,37.51227 -66.92304,26.08605 -4.2038,1.41619 c -3.69085,-2.10906 -27.37454,-25.187 -29.14747,-26.58426 -1.77294,-1.39725 -36.10631,-44.53894 -45.01931,-55.82329 -8.913,-11.28435 -33.71047,-43.09055 -76.19839,-82.10307 -35.68398,-34.44601 -71.82154,-55.990549 -98.51947,-70.856543 -4.36012,-2.27236 -8.67648,-4.11205 -12.68581,-5.934883 -7.92605,-3.60916 -15.09998,-6.43268 -22.25624,-9.0154 -0.98766,-0.99103 -2.63318,-3.4106 -2.33773,-4.94594 0.32624,-1.69524 1.51526,-5.909663 3.958,-10.172243 2.80232,-4.89002 7.16048,-9.899877 12.16988,-12.195694 0,0 3.98609,-1.490986 15.5328,6.494108 0,0 5.41025,-1.403047 17.43185,7.927986 0,0 7.54223,0.27422 18.66427,9.958623 0,0 8.64911,2.07722 18.779,12.07849 0,0 11.69207,3.700543 20.50684,13.428573 0,0 13.28761,6.602633 22.31409,17.122037 0,0 13.45587,9.527726 22.9118,22.176016 0,0 17.22881,14.51722 24.3302,24.61749 0,0 15.77776,15.48728 24.6336,28.63375 0,0 16.58079,18.56228 25.28755,33.43033 0,0 16.68046,22.08589 24.20453,36.36714 0,0 96.71206,-30.40557 114.40889,-35.59466 0.0857,0.0266 -0.21671,1.06679 -0.13558,1.0994 z"
   id="colorFL1-1"
   style="display:inline;mix-blend-mode:normal;fill:#ffffff;stroke-width:0.279117;stroke-miterlimit:10;stroke-dasharray:none" /><path
   class="st0"
   d="m 619.10478,207.08728 0.17275,1.09087 c -2.16844,-0.69746 -6.78809,-1.8017 -12.09961,-3.36597 -7.41358,-1.74324 -29.74233,-14.22007 -55.27159,-15.63404 0,0 6.59972,-12.92359 4.82445,-24.71311 -1.04903,-6.96653 -3.49224,-8.8432 -3.49224,-8.8432 0,0 4.36577,-9.32714 2.94394,-18.76947 -0.81663,-5.42318 -3.26258,-7.35965 -3.26258,-7.35965 0,0 2.43664,-7.63438 1.56838,-13.40053 -0.86666,-5.75542 -3.31733,-7.09782 -3.31733,-7.09782 0,0 1.50385,-5.16231 0.79778,-9.851326 -0.70607,-4.68902 -2.74174,-7.14412 -2.74174,-7.14412 0,0 1.60474,-5.671597 -1.98412,-12.764917 0.007,-0.0994 -0.001,0.0987 0,0 10.52553,7.928543 16.01659,13.026477 16.01659,13.026477 8.96041,8.887536 21.75485,26.753316 26.92055,33.941696 5.16572,7.18836 14.68081,24.96991 14.68081,24.96991 l 9.5596,26.2604 z"
   id="colorFL1-2"
   style="display:inline;mix-blend-mode:normal;fill:#ffffff;stroke-width:0.279117;stroke-miterlimit:10;stroke-dasharray:none" /><path
   class="st0"
   d="m 541.22261,108.36659 c 2.56055,8.58023 -4.0734,21.77361 -4.0734,21.77361 4.86087,9.35801 -5.33424,28.37962 -5.33424,28.37962 5.1382,12.2517 -7.70479,36.32701 -7.70479,36.32701 0.0431,23.78763 -19.24154,48.92598 -19.24154,48.92598 -7.52407,-14.28125 -23.82345,-35.54506 -23.82345,-35.54506 -8.70676,-14.86806 -25.37565,-33.83807 -25.37565,-33.83807 -8.85584,-13.14647 -24.92738,-29.05345 -24.92738,-29.05345 -7.10139,-10.10027 -24.3302,-24.6175 -24.3302,-24.6175 -9.45594,-12.64829 -22.9118,-22.175996 -22.9118,-22.175996 -9.02648,-10.519404 -22.3141,-17.122047 -22.3141,-17.122047 -8.81476,-9.72803 -20.50603,-13.423213 -20.50603,-13.423213 -10.12989,-10.00127 -18.779,-12.07849 -18.779,-12.07849 -11.12204,-9.684403 -18.66427,-9.958623 -18.66427,-9.958623 -12.0216,-9.331033 -17.43185,-7.927986 -17.43185,-7.927986 -11.54671,-7.985094 -15.5328,-6.494108 -15.5328,-6.494108 -5.45785,2.501347 -10.07874,8.25621 -12.87648,13.499684 -2.00849,3.76427 -2.9227,7.357793 -3.2522,8.862893 -0.35928,1.64111 1.35087,3.96027 2.33853,4.9513 -4.97411,-1.79415 -9.71201,-3.43091 -14.30009,-4.75849 v 0 c -3.44116,-2.67763 -2.81767,-5.999253 -2.81767,-5.999253 3.91299,-14.870862 14.86439,-20.864758 14.86439,-20.864758 -3.01054,-2.818861 -10.27693,-4.856095 -11.92513,-4.629561 -1.64286,0.225802 -3.39284,0.969547 -3.39284,0.969547 -4.18487,-2.482424 -7.2788,-3.687567 -9.67909,-3.357662 -2.40029,0.329906 -3.28256,1.957185 -3.28256,1.957185 0,0 -5.92678,-3.391488 -9.08842,-2.542851 -2.77219,0.744099 -3.75398,2.607245 -3.75398,2.607245 0,0 -5.09526,-2.532258 -7.9258,-1.822398 -2.53386,0.635454 -4.35706,3.069228 -4.35706,3.069228 0,0 -2.06975,-1.458423 -6.02635,-1.231859 -3.33321,1.816805 -5.40502,3.883969 -5.40502,3.883969 -2.23438,-0.737628 -4.13812,-0.508789 -5.68976,0.142056 8.30834,-4.891957 15.15731,-5.785898 15.15731,-5.785898 0,0 4.61192,-4.93261 34.05639,-8.383321 41.43058,-4.8554109 92.72358,-3.2159879 186.16772,14.230004 62.57438,10.680521 106.51324,36.636497 128.15887,52.89867 0.0907,0.16804 -0.0784,-0.1588 0,0 -0.12966,6.22442 -3.32267,11.832646 -3.32267,11.832646 3.02214,4.414441 -2.69759,17.299947 -2.69759,17.299947 z"
   id="colorUS1-1"
   style="display:inline;mix-blend-mode:normal;fill:#ffffff;fill-opacity:1;stroke-width:0.279117;stroke-miterlimit:10;stroke-dasharray:none" /><path
   class="st0"
   d="m 239.3642,48.094401 c 0,0 -0.62349,3.321623 2.81767,5.999253 -13.21988,-3.838773 -26.94786,-5.915403 -36.74194,-6.346943 -17.06752,0.60481 -27.44133,3.442273 -30.74219,5.022703 l -7.44522,6.44408 -4.48401,6.96731 -3.57014,11.174333 0.37266,12.863186 4.53033,16.131297 c 3.64984,5.93503 3.43354,5.89653 10.94952,17.80507 0,0 14.29902,14.88949 15.35955,16.76207 -2.07602,-2.72304 -15.45564,-13.83378 -17.81921,-17.20102 -2.36891,-3.36651 -9.10083,-13.83 -11.01815,-17.84932 -1.55444,-3.25193 -3.83833,-10.058106 -5.26777,-16.603118 -0.33936,-1.553802 -0.63056,-3.092885 -0.85241,-4.566195 -0.46165,-3.06579 -0.66851,-6.36161 -0.58182,-9.79762 0.1306,-5.17659 0.74882,-11.386113 2.52322,-16.236753 0.50726,-1.55364 1.4917,-3.94814 1.4917,-3.94814 0.0425,-0.38186 2.42794,-4.697613 3.81158,-6.966123 2.44419,-4.00725 5.45675,-7.39824 7.79247,-10.569438 4.7423,-4.958607 5.71336,-5.504419 5.71336,-5.504419 2.68341,-1.773096 5.03817,-3.386507 7.49918,-5.400072 1.55164,-0.650845 3.45538,-0.879684 5.68976,-0.142056 0,0 2.44956,-2.402925 5.40502,-3.883969 3.9566,-0.226564 6.02635,1.231859 6.02635,1.231859 0,0 1.88272,-2.314723 4.35706,-3.069228 2.7913,-0.851162 7.9258,1.822398 7.9258,1.822398 0,0 1.55484,-2.454563 4.71929,-2.607246 3.26975,-0.157764 8.12311,2.542852 8.12311,2.542852 0,0 1.09212,-1.333493 2.56906,-1.957187 2.232,-0.94255 6.20772,0.87524 10.39259,3.357664 0,0 1.74998,-0.743745 3.39284,-0.969547 1.6482,-0.226534 8.91459,1.8107 11.92513,4.629561 0,0 -11.01604,6.180028 -14.86439,20.864758 z"
   id="colorFR1-1"
   style="display:inline;mix-blend-mode:normal;fill:#ffffff;stroke-width:0.279117;stroke-miterlimit:10;stroke-dasharray:none" /><path
   class="st0"
   d="m 619.27753,208.17815 c -17.69683,5.18909 -114.40888,35.53408 -114.40888,35.53408 0,0 19.28464,-25.07777 19.24153,-48.8654 0,0 13.09562,-24.86807 7.70559,-37.16173 0,0 10.19431,-18.18689 5.33344,-27.5449 0,0 6.63395,-13.19338 4.0734,-21.77361 0,0 5.71973,-12.885506 2.69759,-17.299947 0,0 3.15104,-5.524276 3.32267,-11.832646 3.58886,7.09332 1.98412,12.764917 1.98412,12.764917 0,0 2.03567,2.4551 2.74174,7.14412 0.70607,4.689016 -0.79778,9.851326 -0.79778,9.851326 0,0 2.45067,1.3424 3.31733,7.09782 0.86826,5.76615 -1.56838,13.40053 -1.56838,13.40053 0,0 2.44595,1.93647 3.26258,7.35965 1.42183,9.44233 -2.89577,19.20311 -2.89577,19.20311 0,0 2.39504,1.44303 3.44407,8.40956 1.77527,11.78952 -4.82445,24.71311 -4.82445,24.71311 25.27724,1.58198 47.70056,13.5704 55.27159,15.63404 5.15397,1.52233 9.93037,2.66315 12.09961,3.36597 z"
   id="colorAL1-1"
   style="display:inline;mix-blend-mode:normal;fill:#ffffff;stroke-width:0.278925;stroke-miterlimit:10;stroke-dasharray:none" /></g><style
   type="text/css"
   id="style920">
	.st0{fill:none;stroke:#000000;stroke-width:1.5;stroke-linecap:round;stroke-linejoin:round;stroke-miterlimit:10;}
</style><style
   type="text/css"
   id="style976">
	.st0{fill:#F21414;}
	.st1{fill:#163948;}
	.st2{fill:#F0EFEB;}
	.st3{fill:none;}
</style><style
   type="text/css"
   id="style1064">
	.st0{fill:#F21414;}
	.st1{fill:#163948;}
	.st2{fill:#F0EFEB;}
	.st3{fill:none;}
</style><style
   type="text/css"
   id="style1146">
	.st0{fill:none;stroke:#000000;stroke-width:1.5;stroke-linecap:round;stroke-linejoin:round;stroke-miterlimit:10;}
</style><style
   type="text/css"
   id="style1213">
	.st0{fill:none;stroke:#000000;stroke-width:1.5;stroke-linecap:round;stroke-linejoin:round;stroke-miterlimit:10;}
</style><style
   type="text/css"
   id="style1371">
	.st0{fill:none;stroke:#000000;stroke-width:1.5;stroke-linecap:round;stroke-linejoin:round;stroke-miterlimit:10;}
</style><style
   type="text/css"
   id="style1417">
	.st0{fill:#AD2A4E;}
	.st1{fill:#218CD5;}
	.st2{fill:#77A62D;}
	.st3{fill:#F0EFEB;}
	.st4{fill:none;}
</style><style
   type="text/css"
   id="style1451">
	.st0{fill:none;stroke:#000000;stroke-width:1.5;stroke-linecap:round;stroke-linejoin:round;stroke-miterlimit:10;}
</style></svg>
