<?xml version="1.0" encoding="UTF-8" standalone="no"?>
<svg
   version="1.1"
   id="Layer_1"
   x="0px"
   y="0px"
   viewBox="0 0 39511.108 26839.336"
   xml:space="preserve"
   width="1400"
   height="951"
   sodipodi:docname="mirage-2-rs-DE_ed14.svg"
   inkscape:version="1.1.2 (b8e25be833, 2022-02-05)"
   xmlns:inkscape="http://www.inkscape.org/namespaces/inkscape"
   xmlns:sodipodi="http://sodipodi.sourceforge.net/DTD/sodipodi-0.dtd"
   xmlns:xlink="http://www.w3.org/1999/xlink"
   xmlns="http://www.w3.org/2000/svg"
   xmlns:svg="http://www.w3.org/2000/svg"
   xmlns:rdf="http://www.w3.org/1999/02/22-rdf-syntax-ns#"
   xmlns:cc="http://creativecommons.org/ns#"
   xmlns:dc="http://purl.org/dc/elements/1.1/"><sodipodi:namedview
   id="namedview836"
   pagecolor="#ffffff"
   bordercolor="#666666"
   borderopacity="1.0"
   inkscape:pageshadow="2"
   inkscape:pageopacity="0.0"
   inkscape:pagecheckerboard="0"
   showgrid="false"
   inkscape:zoom="0.80642857"
   inkscape:cx="517.71479"
   inkscape:cy="474.93357"
   inkscape:window-width="1920"
   inkscape:window-height="1017"
   inkscape:window-x="-8"
   inkscape:window-y="-8"
   inkscape:window-maximized="1"
   inkscape:current-layer="layer2" /><title
   id="title444">Swing.de ColorTool</title><metadata
   id="metadata105"><rdf:RDF><cc:Work
       rdf:about=""><dc:format>image/svg+xml</dc:format><dc:type
         rdf:resource="http://purl.org/dc/dcmitype/StillImage" /><dc:title>Swing.de ColorTool</dc:title><dc:creator><cc:Agent><dc:title>Daniel Kofler</dc:title></cc:Agent></dc:creator><dc:publisher><cc:Agent><dc:title>Swing.de</dc:title></cc:Agent></dc:publisher></cc:Work></rdf:RDF></metadata><defs
   id="defs103"><linearGradient
   id="linearGradient2841"
   inkscape:swatch="solid"><stop
     style="stop-color:#000000;stop-opacity:1;"
     offset="0"
     id="stop2839" /></linearGradient><linearGradient
   id="linearGradient2366"><stop
     style="stop-color:#ff0000;stop-opacity:1;"
     offset="0"
     id="stop2362" /><stop
     style="stop-color:#ff0000;stop-opacity:0;"
     offset="1"
     id="stop2364" /></linearGradient><linearGradient
   id="linearGradient3431"
   inkscape:swatch="solid"><stop
     style="stop-color:#ff0000;stop-opacity:1;"
     offset="0"
     id="stop3429" /></linearGradient>
	
	

		
	
			
			
			
			
			
		
			
			
			
			
			
			
			
			
			
		
	
	

		
	
	
	

		
	
			
			
			
			
			
			
			
			
			
			
			
			
		<filter
   style="color-interpolation-filters:sRGB"
   id="filter2358"
   x="-0.0061474629"
   width="1.0122949"
   y="-0.09385471"
   height="1.1877095"><feGaussianBlur
     stdDeviation="1.8938269"
     id="feGaussianBlur2360" /></filter><radialGradient
   xlink:href="#linearGradient2366"
   id="radialGradient2368"
   cx="507.17773"
   cy="952.27057"
   fx="507.17773"
   fy="952.27057"
   r="374.22485"
   gradientTransform="matrix(1,0,0,0.07684985,0,879.08873)"
   gradientUnits="userSpaceOnUse" /></defs>
<style
   type="text/css"
   id="style2">
	.st0{fill:none;stroke:#000000;stroke-width:1.5;stroke-linecap:round;stroke-linejoin:round;stroke-miterlimit:10;}
</style>


<g
   id="layer2"
   style="display:inline;opacity:0.8;mix-blend-mode:multiply"
   transform="translate(64.843513)"><path
     class="st0"
     d="m 3698.3026,15056.205 c -2.2921,-211.588 10.5103,-459.589 18.1432,-587.268 0.6762,-1.592 1.5837,-3.186 2.26,-4.778 0,0 10.3913,-65.097 41.6903,-163.496 29.8112,41.699 112.9747,121.486 341.733,239.603 0,0 -14.756,46.318 46.4582,105.923 61.4454,59.602 330.2005,220.701 564.9687,338.757 0,0 15.7939,92.169 280.8142,249.938 264.787,157.573 487.2597,292.992 487.2597,292.992 0,0 27.3829,73.624 185.7809,184.142 158.1647,110.323 645.8873,424.71 645.8873,424.71 0,0 113.1287,114.352 210.5248,184.879 97.3941,70.329 642.2619,431.483 673.5624,461.278 0,0 308.0708,247.875 488.1654,376.597 118.3544,84.578 329.7218,240.52 460.227,337.059 -5.0833,0.251 -10.1686,0.303 -15.2561,0.157 -256.2917,-141.611 -922.7631,-524.5 -922.7631,-524.5 -15.13,-9.553 -645.084,-329.215 -726.9903,-378.304 -81.9062,-49.089 -145.9452,-92.021 -145.9452,-92.021 0,0 -610.4571,-291.133 -681.6425,-332.208 -71.1852,-41.076 -139.0814,-98.631 -139.0814,-98.631 0,0 -607.4365,-268.377 -659.9859,-296.369 -52.5515,-28.191 -91.2946,-83.469 -91.2946,-83.469 0,0 -226.069,-83.272 -420.3823,-158.748 -194.3132,-75.475 -194.7253,-113.514 -194.7253,-113.514 -228.5262,564.862 -254.9215,966.56 -252.4491,1194.789 2.2212,205.049 68.6702,833.255 81.8303,959.73 -10.8067,-79.937 -51.6541,-372.166 -127.9367,-819.768 -90.1178,-529.687 -149.3141,-1555.431 -150.8529,-1697.48 z"
     id="colorAL1-2"
     style="display:inline;fill:#ffffff;stroke-width:11.7106;stroke-miterlimit:10;stroke-dasharray:none" /></g><style
   type="text/css"
   id="style920">
	.st0{fill:none;stroke:#000000;stroke-width:1.5;stroke-linecap:round;stroke-linejoin:round;stroke-miterlimit:10;}
</style><style
   type="text/css"
   id="style976">
	.st0{fill:#F21414;}
	.st1{fill:#163948;}
	.st2{fill:#F0EFEB;}
	.st3{fill:none;}
</style><style
   type="text/css"
   id="style1064">
	.st0{fill:#F21414;}
	.st1{fill:#163948;}
	.st2{fill:#F0EFEB;}
	.st3{fill:none;}
</style><style
   type="text/css"
   id="style1146">
	.st0{fill:none;stroke:#000000;stroke-width:1.5;stroke-linecap:round;stroke-linejoin:round;stroke-miterlimit:10;}
</style><style
   type="text/css"
   id="style1213">
	.st0{fill:none;stroke:#000000;stroke-width:1.5;stroke-linecap:round;stroke-linejoin:round;stroke-miterlimit:10;}
</style><style
   type="text/css"
   id="style1371">
	.st0{fill:none;stroke:#000000;stroke-width:1.5;stroke-linecap:round;stroke-linejoin:round;stroke-miterlimit:10;}
</style><style
   type="text/css"
   id="style1417">
	.st0{fill:#AD2A4E;}
	.st1{fill:#218CD5;}
	.st2{fill:#77A62D;}
	.st3{fill:#F0EFEB;}
	.st4{fill:none;}
</style><style
   type="text/css"
   id="style1451">
	.st0{fill:none;stroke:#000000;stroke-width:1.5;stroke-linecap:round;stroke-linejoin:round;stroke-miterlimit:10;}
</style></svg>
